<svg width="18" height="18" viewBox="0 0 18 18" fill="none" xmlns="http://www.w3.org/2000/svg">
<path d="M11.2502 11.2499C11.1542 11.2499 11.0582 11.2132 10.9847 11.1404L6.48469 6.64043C6.33844 6.49418 6.33844 6.25643 6.48469 6.11018C6.63094 5.96393 6.86869 5.96393 7.01494 6.11018L11.5149 10.6102C11.6612 10.7564 11.6612 10.9942 11.5149 11.1404C11.4422 11.2132 11.3462 11.2499 11.2502 11.2499Z" fill="#FF0606"/>
<path d="M6.75019 11.2499C6.65419 11.2499 6.55819 11.2132 6.48469 11.1404C6.33844 10.9942 6.33844 10.7564 6.48469 10.6102L10.9847 6.11018C11.1309 5.96393 11.3687 5.96393 11.5149 6.11018C11.6612 6.25643 11.6612 6.49418 11.5149 6.64043L7.01494 11.1404C6.94219 11.2132 6.84619 11.2499 6.75019 11.2499Z" fill="#FE0808"/>
</svg>
